<mxfile host="app.diagrams.net" agent="Mozilla/5.0 (Windows NT 10.0; Win64; x64) AppleWebKit/537.36 (KHTML, like Gecko) Chrome/131.0.0.0 Safari/537.36 Edg/131.0.0.0" version="25.0.3">
  <diagram id="R2lEEEUBdFMjLlhIrx00" name="Page-1">
    <mxGraphModel dx="773" dy="1088" grid="1" gridSize="10" guides="1" tooltips="1" connect="1" arrows="1" fold="1" page="1" pageScale="1" pageWidth="850" pageHeight="1100" math="0" shadow="0" extFonts="Permanent Marker^https://fonts.googleapis.com/css?family=Permanent+Marker">
      <root>
        <mxCell id="0" />
        <mxCell id="1" parent="0" />
        <mxCell id="K6a7c0_sba37CNrSZ4sq-1" value="app" style="rounded=0;whiteSpace=wrap;html=1;" vertex="1" parent="1">
          <mxGeometry x="820" y="830" width="120" height="60" as="geometry" />
        </mxCell>
        <mxCell id="K6a7c0_sba37CNrSZ4sq-2" value="id" style="ellipse;whiteSpace=wrap;html=1;" vertex="1" parent="1">
          <mxGeometry x="230" y="640" width="120" height="80" as="geometry" />
        </mxCell>
        <mxCell id="K6a7c0_sba37CNrSZ4sq-3" value="appName" style="ellipse;whiteSpace=wrap;html=1;" vertex="1" parent="1">
          <mxGeometry x="330" y="520" width="120" height="80" as="geometry" />
        </mxCell>
        <mxCell id="K6a7c0_sba37CNrSZ4sq-4" value="appDesc" style="ellipse;whiteSpace=wrap;html=1;" vertex="1" parent="1">
          <mxGeometry x="515" y="520" width="120" height="80" as="geometry" />
        </mxCell>
        <mxCell id="K6a7c0_sba37CNrSZ4sq-5" value="appIcon" style="ellipse;whiteSpace=wrap;html=1;" vertex="1" parent="1">
          <mxGeometry x="730" y="450" width="120" height="80" as="geometry" />
        </mxCell>
        <mxCell id="K6a7c0_sba37CNrSZ4sq-7" value="appType" style="ellipse;whiteSpace=wrap;html=1;" vertex="1" parent="1">
          <mxGeometry x="920" y="410" width="120" height="80" as="geometry" />
        </mxCell>
        <mxCell id="K6a7c0_sba37CNrSZ4sq-8" value="scoringStrategy" style="ellipse;whiteSpace=wrap;html=1;" vertex="1" parent="1">
          <mxGeometry x="1100" y="450" width="110" height="80" as="geometry" />
        </mxCell>
        <mxCell id="K6a7c0_sba37CNrSZ4sq-9" value="reviewStatus" style="ellipse;whiteSpace=wrap;html=1;" vertex="1" parent="1">
          <mxGeometry x="1210" y="490" width="120" height="80" as="geometry" />
        </mxCell>
        <mxCell id="K6a7c0_sba37CNrSZ4sq-10" value="reviewMessage" style="ellipse;whiteSpace=wrap;html=1;" vertex="1" parent="1">
          <mxGeometry x="1360" y="550" width="120" height="80" as="geometry" />
        </mxCell>
        <mxCell id="K6a7c0_sba37CNrSZ4sq-13" value="reviewId这里是外键" style="ellipse;whiteSpace=wrap;html=1;" vertex="1" parent="1">
          <mxGeometry x="2180" y="840" width="120" height="80" as="geometry" />
        </mxCell>
        <mxCell id="K6a7c0_sba37CNrSZ4sq-14" value="reviewTime" style="ellipse;whiteSpace=wrap;html=1;" vertex="1" parent="1">
          <mxGeometry x="1400" y="650" width="120" height="80" as="geometry" />
        </mxCell>
        <mxCell id="K6a7c0_sba37CNrSZ4sq-15" value="userId这里也是外键" style="ellipse;whiteSpace=wrap;html=1;" vertex="1" parent="1">
          <mxGeometry x="2070" y="560" width="120" height="80" as="geometry" />
        </mxCell>
        <mxCell id="K6a7c0_sba37CNrSZ4sq-16" value="createTime" style="ellipse;whiteSpace=wrap;html=1;" vertex="1" parent="1">
          <mxGeometry x="1500" y="730" width="120" height="80" as="geometry" />
        </mxCell>
        <mxCell id="K6a7c0_sba37CNrSZ4sq-17" value="updateTime" style="ellipse;whiteSpace=wrap;html=1;" vertex="1" parent="1">
          <mxGeometry x="1560" y="860" width="120" height="80" as="geometry" />
        </mxCell>
        <mxCell id="K6a7c0_sba37CNrSZ4sq-20" value="" style="endArrow=none;html=1;rounded=0;entryX=0.25;entryY=0;entryDx=0;entryDy=0;" edge="1" parent="1" source="K6a7c0_sba37CNrSZ4sq-2" target="K6a7c0_sba37CNrSZ4sq-1">
          <mxGeometry width="50" height="50" relative="1" as="geometry">
            <mxPoint x="670" y="550" as="sourcePoint" />
            <mxPoint x="720" y="500" as="targetPoint" />
          </mxGeometry>
        </mxCell>
        <mxCell id="K6a7c0_sba37CNrSZ4sq-22" value="" style="endArrow=none;html=1;rounded=0;entryX=0.25;entryY=0;entryDx=0;entryDy=0;" edge="1" parent="1" source="K6a7c0_sba37CNrSZ4sq-3" target="K6a7c0_sba37CNrSZ4sq-1">
          <mxGeometry width="50" height="50" relative="1" as="geometry">
            <mxPoint x="670" y="550" as="sourcePoint" />
            <mxPoint x="720" y="500" as="targetPoint" />
          </mxGeometry>
        </mxCell>
        <mxCell id="K6a7c0_sba37CNrSZ4sq-24" value="" style="endArrow=none;html=1;rounded=0;exitX=1;exitY=0.5;exitDx=0;exitDy=0;entryX=0.25;entryY=0;entryDx=0;entryDy=0;" edge="1" parent="1" source="K6a7c0_sba37CNrSZ4sq-4" target="K6a7c0_sba37CNrSZ4sq-1">
          <mxGeometry width="50" height="50" relative="1" as="geometry">
            <mxPoint x="670" y="550" as="sourcePoint" />
            <mxPoint x="840" y="810" as="targetPoint" />
          </mxGeometry>
        </mxCell>
        <mxCell id="K6a7c0_sba37CNrSZ4sq-25" value="" style="endArrow=none;html=1;rounded=0;entryX=0.5;entryY=0;entryDx=0;entryDy=0;" edge="1" parent="1" source="K6a7c0_sba37CNrSZ4sq-5" target="K6a7c0_sba37CNrSZ4sq-1">
          <mxGeometry width="50" height="50" relative="1" as="geometry">
            <mxPoint x="1540" y="820" as="sourcePoint" />
            <mxPoint x="1590" y="770" as="targetPoint" />
          </mxGeometry>
        </mxCell>
        <mxCell id="K6a7c0_sba37CNrSZ4sq-26" value="" style="endArrow=none;html=1;rounded=0;entryX=0.889;entryY=0.1;entryDx=0;entryDy=0;entryPerimeter=0;" edge="1" parent="1" source="K6a7c0_sba37CNrSZ4sq-7" target="K6a7c0_sba37CNrSZ4sq-1">
          <mxGeometry width="50" height="50" relative="1" as="geometry">
            <mxPoint x="1540" y="820" as="sourcePoint" />
            <mxPoint x="1590" y="770" as="targetPoint" />
          </mxGeometry>
        </mxCell>
        <mxCell id="K6a7c0_sba37CNrSZ4sq-27" value="" style="endArrow=none;html=1;rounded=0;entryX=0.75;entryY=0;entryDx=0;entryDy=0;" edge="1" parent="1" source="K6a7c0_sba37CNrSZ4sq-8" target="K6a7c0_sba37CNrSZ4sq-1">
          <mxGeometry width="50" height="50" relative="1" as="geometry">
            <mxPoint x="1540" y="820" as="sourcePoint" />
            <mxPoint x="1590" y="770" as="targetPoint" />
          </mxGeometry>
        </mxCell>
        <mxCell id="K6a7c0_sba37CNrSZ4sq-28" value="" style="endArrow=none;html=1;rounded=0;" edge="1" parent="1" source="K6a7c0_sba37CNrSZ4sq-9" target="K6a7c0_sba37CNrSZ4sq-1">
          <mxGeometry width="50" height="50" relative="1" as="geometry">
            <mxPoint x="1540" y="820" as="sourcePoint" />
            <mxPoint x="1590" y="770" as="targetPoint" />
          </mxGeometry>
        </mxCell>
        <mxCell id="K6a7c0_sba37CNrSZ4sq-29" value="" style="endArrow=none;html=1;rounded=0;entryX=1;entryY=0.25;entryDx=0;entryDy=0;" edge="1" parent="1" source="K6a7c0_sba37CNrSZ4sq-10" target="K6a7c0_sba37CNrSZ4sq-1">
          <mxGeometry width="50" height="50" relative="1" as="geometry">
            <mxPoint x="1540" y="820" as="sourcePoint" />
            <mxPoint x="1590" y="770" as="targetPoint" />
          </mxGeometry>
        </mxCell>
        <mxCell id="K6a7c0_sba37CNrSZ4sq-30" value="" style="endArrow=none;html=1;rounded=0;exitX=0.322;exitY=0.925;exitDx=0;exitDy=0;exitPerimeter=0;entryX=1;entryY=0.5;entryDx=0;entryDy=0;" edge="1" parent="1" source="K6a7c0_sba37CNrSZ4sq-14" target="K6a7c0_sba37CNrSZ4sq-1">
          <mxGeometry width="50" height="50" relative="1" as="geometry">
            <mxPoint x="1540" y="820" as="sourcePoint" />
            <mxPoint x="1590" y="770" as="targetPoint" />
          </mxGeometry>
        </mxCell>
        <mxCell id="K6a7c0_sba37CNrSZ4sq-31" value="" style="endArrow=none;html=1;rounded=0;" edge="1" parent="1" source="K6a7c0_sba37CNrSZ4sq-16" target="K6a7c0_sba37CNrSZ4sq-1">
          <mxGeometry width="50" height="50" relative="1" as="geometry">
            <mxPoint x="1540" y="820" as="sourcePoint" />
            <mxPoint x="1590" y="770" as="targetPoint" />
          </mxGeometry>
        </mxCell>
        <mxCell id="K6a7c0_sba37CNrSZ4sq-32" value="" style="endArrow=none;html=1;rounded=0;exitX=0;exitY=0;exitDx=0;exitDy=0;" edge="1" parent="1" source="K6a7c0_sba37CNrSZ4sq-17" target="K6a7c0_sba37CNrSZ4sq-1">
          <mxGeometry width="50" height="50" relative="1" as="geometry">
            <mxPoint x="1540" y="820" as="sourcePoint" />
            <mxPoint x="1590" y="770" as="targetPoint" />
          </mxGeometry>
        </mxCell>
        <mxCell id="K6a7c0_sba37CNrSZ4sq-33" value="user" style="rounded=0;whiteSpace=wrap;html=1;" vertex="1" parent="1">
          <mxGeometry x="450" y="1220" width="120" height="60" as="geometry" />
        </mxCell>
        <mxCell id="K6a7c0_sba37CNrSZ4sq-34" value="id" style="ellipse;whiteSpace=wrap;html=1;" vertex="1" parent="1">
          <mxGeometry x="280" y="1040" width="120" height="80" as="geometry" />
        </mxCell>
        <mxCell id="K6a7c0_sba37CNrSZ4sq-35" value="userAccount" style="ellipse;whiteSpace=wrap;html=1;" vertex="1" parent="1">
          <mxGeometry x="470" y="1040" width="120" height="80" as="geometry" />
        </mxCell>
        <mxCell id="K6a7c0_sba37CNrSZ4sq-36" value="userPassword" style="ellipse;whiteSpace=wrap;html=1;" vertex="1" parent="1">
          <mxGeometry x="670" y="1040" width="120" height="80" as="geometry" />
        </mxCell>
        <mxCell id="K6a7c0_sba37CNrSZ4sq-37" value="username" style="ellipse;whiteSpace=wrap;html=1;" vertex="1" parent="1">
          <mxGeometry x="840" y="1040" width="120" height="80" as="geometry" />
        </mxCell>
        <mxCell id="K6a7c0_sba37CNrSZ4sq-40" value="userAvator" style="ellipse;whiteSpace=wrap;html=1;" vertex="1" parent="1">
          <mxGeometry x="1040" y="1040" width="120" height="80" as="geometry" />
        </mxCell>
        <mxCell id="K6a7c0_sba37CNrSZ4sq-41" value="userProfile" style="ellipse;whiteSpace=wrap;html=1;" vertex="1" parent="1">
          <mxGeometry x="1230" y="1040" width="120" height="80" as="geometry" />
        </mxCell>
        <mxCell id="K6a7c0_sba37CNrSZ4sq-42" value="userRole" style="ellipse;whiteSpace=wrap;html=1;" vertex="1" parent="1">
          <mxGeometry x="1390" y="1040" width="120" height="80" as="geometry" />
        </mxCell>
        <mxCell id="K6a7c0_sba37CNrSZ4sq-43" value="createTime" style="ellipse;whiteSpace=wrap;html=1;" vertex="1" parent="1">
          <mxGeometry x="1580" y="1040" width="120" height="80" as="geometry" />
        </mxCell>
        <mxCell id="K6a7c0_sba37CNrSZ4sq-44" value="updateTime" style="ellipse;whiteSpace=wrap;html=1;" vertex="1" parent="1">
          <mxGeometry x="1750" y="1040" width="120" height="80" as="geometry" />
        </mxCell>
        <mxCell id="K6a7c0_sba37CNrSZ4sq-45" value="" style="endArrow=none;html=1;rounded=0;exitX=1;exitY=0;exitDx=0;exitDy=0;" edge="1" parent="1" source="K6a7c0_sba37CNrSZ4sq-34" target="K6a7c0_sba37CNrSZ4sq-33">
          <mxGeometry width="50" height="50" relative="1" as="geometry">
            <mxPoint x="660" y="950" as="sourcePoint" />
            <mxPoint x="710" y="900" as="targetPoint" />
          </mxGeometry>
        </mxCell>
        <mxCell id="K6a7c0_sba37CNrSZ4sq-46" value="" style="endArrow=none;html=1;rounded=0;exitX=0.5;exitY=1;exitDx=0;exitDy=0;entryX=0.75;entryY=0;entryDx=0;entryDy=0;" edge="1" parent="1" source="K6a7c0_sba37CNrSZ4sq-35" target="K6a7c0_sba37CNrSZ4sq-33">
          <mxGeometry width="50" height="50" relative="1" as="geometry">
            <mxPoint x="660" y="950" as="sourcePoint" />
            <mxPoint x="710" y="900" as="targetPoint" />
          </mxGeometry>
        </mxCell>
      </root>
    </mxGraphModel>
  </diagram>
</mxfile>
